# Blender v2.83.5 OBJ File: ''
# www.blender.org
mtllib gun.mtl
o Cube_Cube.001
v -2.061503 0.828590 0.446451
v -2.004834 1.459400 0.446451
v -2.061503 0.828590 -0.446451
v -2.004834 1.459400 -0.446451
v 2.217341 0.651501 0.446451
v 2.309427 1.431066 0.446451
v 2.217341 0.651501 -0.446451
v 2.309427 1.431066 -0.446451
v -2.001292 0.995240 0.446451
v -2.001292 0.995240 -0.446451
v 2.284635 0.963364 -0.446451
v 2.284635 0.963364 0.446451
v -1.694728 0.644379 0.446451
v -1.694728 0.644379 -0.446451
v 0.126120 0.566460 0.446451
v 0.126120 0.566460 -0.446451
v -1.754798 0.054499 0.446451
v -1.754798 0.054499 -0.446450
v -0.288128 0.451179 0.446451
v -0.288128 0.451179 -0.446450
v -2.273211 -0.974938 0.446451
v -2.273211 -0.974938 -0.446450
v -1.096967 -1.237030 0.446451
v -1.096967 -1.237030 -0.446450
v 0.205262 0.075565 0.446451
v 0.205262 0.075565 -0.446451
v 0.145192 0.038203 0.446451
v 0.145192 0.038203 -0.446450
v -0.461712 0.088875 0.446451
v -0.467060 0.077712 -0.446450
v -0.409409 0.198041 -0.446450
v -0.393119 0.232043 0.446451
v -0.138464 -0.090592 0.446451
v -0.143812 -0.101755 -0.446450
v -0.102558 -0.014220 -0.446450
v -0.086268 0.019781 0.446451
v 0.869761 -0.085239 0.446341
v 0.864413 -0.096402 -0.446561
v 0.831879 0.056721 -0.446561
v 0.848170 0.090723 0.446341
v 0.590121 0.000754 -0.446505
v 0.360300 -0.099078 -0.446505
v 0.365648 -0.087915 0.446396
v 0.606411 0.034756 0.446396
v 0.902395 0.606727 -0.469943
v 0.918686 0.640728 0.422959
v 0.771318 0.616348 -0.469887
v 0.787608 0.650349 0.423014
vt 0.625000 0.000000
vt 0.500000 0.250000
vt 0.500000 0.000000
vt 0.625000 0.250000
vt 0.500000 0.500000
vt 0.625000 0.500000
vt 0.500000 0.750000
vt 0.625000 1.000000
vt 0.500000 1.000000
vt 0.375000 1.000000
vt 0.375000 0.750000
vt 0.375000 0.750000
vt 0.875000 0.500000
vt 0.625000 0.750000
vt 0.375000 0.500000
vt 0.375000 0.250000
vt 0.375000 0.000000
vt 0.375000 1.000000
vt 0.375000 0.750000
vt 0.375000 0.500000
vt 0.375000 0.250000
vt 0.375000 0.000000
vt 0.375000 0.500000
vt 0.375000 0.750000
vt 0.375000 0.500000
vt 0.375000 0.500000
vt 0.375000 0.250000
vt 0.375000 0.500000
vt 0.375000 0.000000
vt 0.125000 0.500000
vt 0.125000 0.750000
vt 0.375000 0.000000
vt 0.375000 1.000000
vt 0.375000 0.750000
vt 0.375000 0.750000
vt 0.375000 0.500000
vt 0.375000 0.750000
vt 0.375000 0.750000
vt 0.375000 0.750000
vt 0.375000 0.500000
vt 0.375000 0.500000
vt 0.375000 0.500000
vt 0.375000 0.500000
vt 0.375000 0.750000
vt 0.375000 0.500000
vt 0.375000 0.500000
vt 0.375000 0.500000
vt 0.375000 0.750000
vt 0.375000 0.750000
vt 0.375000 0.750000
vt 0.375000 0.750000
vt 0.375000 0.750000
vt 0.375000 0.750000
vt 0.375000 0.500000
vt 0.375000 0.500000
vt 0.875000 0.750000
vt 0.375000 0.250000
vt 0.375000 1.000000
vn -1.0000 -0.0076 0.0000
vn 0.0000 0.0000 -1.0000
vn 0.9986 -0.0529 0.0000
vn 0.0000 -0.0000 1.0000
vn 0.0066 1.0000 0.0000
vn 0.9775 -0.2109 0.0000
vn -0.9405 0.3398 0.0000
vn -0.4488 -0.8936 0.0000
vn 0.0406 -0.9992 0.0000
vn 0.9018 -0.4321 0.0000
vn -0.9949 0.1013 0.0000
vn -0.2175 -0.9761 0.0000
vn -0.8931 0.4498 0.0000
vn 0.5282 -0.8492 0.0000
vn -0.6899 -0.7239 0.0000
vn 0.9873 0.1592 0.0000
vn -0.4854 -0.8742 0.0138
vn -0.0001 0.0003 -1.0000
vn 0.5684 0.8217 -0.0417
vn 0.9781 0.2078 -0.0085
vn 0.0002 0.0000 1.0000
vn 0.9917 -0.1277 -0.0132
vn 0.0053 -0.9999 0.0125
vn -0.0216 0.9991 -0.0376
vn 0.0001 -0.0002 1.0000
vn -0.0001 0.0001 -1.0000
vn 0.0731 0.9965 -0.0393
vn -0.0035 -0.0420 -0.9991
vn -0.9592 0.2826 0.0067
vn -0.0092 0.0407 0.9991
vn -0.0002 -0.0000 -1.0000
vn 0.9923 0.1218 -0.0227
vn 0.0001 -0.0001 1.0000
vn -0.0001 0.0002 -1.0000
vn 0.0092 -0.0407 -0.9991
vn 0.0035 0.0420 0.9991
usemtl None
s off
f 2/1/1 10/2/1 9/3/1
f 4/4/2 11/5/2 10/2/2
f 8/6/3 12/7/3 11/5/3
f 12/7/4 2/8/4 9/9/4
f 1/10/4 15/11/4 5/12/4
f 4/13/5 6/14/5 8/6/5
f 5/12/4 9/9/4 1/10/4
f 11/5/6 5/12/6 7/15/6
f 10/2/2 7/15/2 3/16/2
f 9/3/7 3/16/7 1/17/7
f 13/18/4 19/19/4 15/11/4
f 3/16/2 16/20/2 14/21/2
f 3/16/8 13/22/8 1/17/8
f 5/12/9 16/20/9 7/15/9
f 30/23/10 23/24/10 24/25/10
f 14/21/2 20/26/2 18/27/2
f 16/20/2 28/28/2 20/26/2
f 13/22/11 18/27/11 17/29/11
f 22/30/12 23/24/12 21/31/12
f 18/27/13 21/32/13 17/29/13
f 17/33/4 23/24/4 29/34/4
f 30/23/2 24/25/2 18/27/2
f 25/35/14 28/28/14 26/36/14
f 20/26/15 27/37/15 19/19/15
f 15/11/16 26/36/16 16/20/16
f 15/11/4 27/37/4 25/35/4
f 30/23/17 33/38/17 29/34/17
f 20/26/10 32/39/10 31/40/10
f 41/41/18 38/42/18 42/43/18
f 29/34/4 36/44/4 32/39/4
f 31/40/19 36/44/19 35/45/19
f 30/23/2 35/45/2 34/46/2
f 39/47/20 37/48/20 38/42/20
f 44/49/21 37/48/21 40/50/21
f 39/47/22 46/51/22 40/50/22
f 43/52/23 38/42/23 37/48/23
f 33/38/23 42/43/23 43/52/23
f 36/44/24 41/41/24 35/45/24
f 36/44/25 43/52/25 44/49/25
f 35/45/26 42/43/26 34/46/26
f 48/53/27 45/54/27 47/55/27
f 39/47/28 47/55/28 45/54/28
f 44/49/29 47/55/29 41/41/29
f 40/50/30 48/53/30 44/49/30
f 2/1/1 4/4/1 10/2/1
f 4/4/2 8/6/2 11/5/2
f 8/6/3 6/14/3 12/7/3
f 12/7/4 6/14/4 2/8/4
f 1/10/4 13/18/4 15/11/4
f 4/13/5 2/56/5 6/14/5
f 5/12/4 12/7/4 9/9/4
f 11/5/6 12/7/6 5/12/6
f 10/2/2 11/5/2 7/15/2
f 9/3/7 10/2/7 3/16/7
f 13/18/4 17/33/4 19/19/4
f 3/16/2 7/15/2 16/20/2
f 3/16/8 14/21/8 13/22/8
f 5/12/9 15/11/9 16/20/9
f 30/23/10 29/34/10 23/24/10
f 14/21/2 16/20/2 20/26/2
f 16/20/2 26/36/2 28/28/2
f 13/22/11 14/21/11 18/27/11
f 22/30/12 24/25/12 23/24/12
f 18/27/13 22/57/13 21/32/13
f 32/39/4 19/19/4 17/33/4
f 17/33/4 21/58/4 23/24/4
f 29/34/4 32/39/4 17/33/4
f 22/57/2 18/27/2 24/25/2
f 18/27/2 20/26/2 31/40/2
f 30/23/2 18/27/2 31/40/2
f 25/35/14 27/37/14 28/28/14
f 20/26/15 28/28/15 27/37/15
f 15/11/16 25/35/16 26/36/16
f 15/11/4 19/19/4 27/37/4
f 30/23/17 34/46/17 33/38/17
f 20/26/10 19/19/10 32/39/10
f 41/41/31 39/47/31 38/42/31
f 29/34/4 33/38/4 36/44/4
f 31/40/19 32/39/19 36/44/19
f 30/23/2 31/40/2 35/45/2
f 39/47/32 40/50/32 37/48/32
f 44/49/25 43/52/25 37/48/25
f 39/47/22 45/54/22 46/51/22
f 43/52/23 42/43/23 38/42/23
f 33/38/23 34/46/23 42/43/23
f 36/44/24 44/49/24 41/41/24
f 36/44/33 33/38/33 43/52/33
f 35/45/34 41/41/34 42/43/34
f 48/53/27 46/51/27 45/54/27
f 39/47/35 41/41/35 47/55/35
f 44/49/29 48/53/29 47/55/29
f 40/50/36 46/51/36 48/53/36
