# Blender v2.83.5 OBJ File: ''
# www.blender.org
mtllib shotgun.mtl
o Cube_Cube.002
v -2.269064 -0.345550 0.096000
v -2.306625 0.116231 0.096000
v -2.289061 -0.349495 -0.094758
v -2.304285 0.116860 -0.086765
v -1.635293 -0.084601 0.096000
v -1.579940 0.195307 0.096000
v -1.635293 -0.082624 -0.096000
v -1.585871 0.191353 -0.096000
v -1.425654 0.184768 0.094845
v -1.439493 -0.150492 0.094845
v -1.279704 0.098983 0.092635
v -1.141321 0.303769 0.092635
v -1.439493 -0.148515 -0.097155
v -1.431585 0.180815 -0.097155
v -1.251103 0.133944 -0.100760
v -1.147252 0.299815 -0.099365
v -1.297903 0.060036 0.092165
v -1.108121 0.140278 0.092165
v -1.309343 0.050381 -0.101230
v -1.114052 0.136324 -0.099835
v -1.113092 0.136302 0.093017
v -1.156584 0.298613 0.093017
v -1.113092 0.136302 -0.093017
v -1.156584 0.298613 -0.093017
v -0.852870 0.148475 0.093017
v -0.970550 0.353966 0.093017
v -0.846006 0.146187 -0.093017
v -0.970550 0.353966 -0.093017
v -0.127748 0.140703 0.093017
v -0.106002 0.358366 0.093017
v -0.127748 0.140703 -0.093017
v -0.106002 0.358366 -0.093017
v -1.134838 0.217458 0.093017
v -1.134838 0.217458 -0.093017
v -0.908278 0.250077 -0.093017
v -0.908278 0.250077 0.093017
v -0.116875 0.249534 -0.093017
v -0.116875 0.249534 0.093017
v 2.104649 0.363071 0.093017
v 2.104649 0.363071 -0.093017
v 2.093776 0.254239 -0.093017
v 2.093776 0.254239 0.093017
v -0.979549 0.141245 -0.093017
v -1.063567 0.326290 -0.093017
v -0.979549 0.141245 0.093017
v -1.063567 0.326290 0.093017
v -1.021558 0.233767 0.093017
v -1.021558 0.233767 -0.093017
v -1.098853 0.037739 0.093017
v -1.098853 0.037739 -0.093017
v -1.081214 0.059137 -0.093017
v -1.081214 0.059137 0.093017
v -1.045877 -0.005930 0.093017
v -1.045877 -0.005930 -0.093017
v -1.028239 0.015468 -0.093017
v -1.028239 0.015468 0.093017
v -0.892309 0.010130 0.093017
v -0.892309 0.010130 -0.093017
v -0.906703 0.032672 -0.093017
v -0.906703 0.032672 0.093017
v -0.796587 0.148175 0.093017
v -0.796587 0.148175 -0.093017
v -0.845302 0.150124 -0.093017
v -0.845302 0.150124 0.093017
v -0.125786 0.089102 0.063626
v -0.119112 0.249722 0.063626
v -0.125786 0.089102 -0.063626
v -0.119112 0.249722 -0.063626
v 0.840425 0.094822 0.063626
v 0.838518 0.252583 0.063626
v 0.840425 0.094822 -0.063626
v 0.838518 0.252583 -0.063626
vt 0.001403 0.003100
vt 0.251403 0.003100
vt 0.251403 0.253100
vt 0.001403 0.253100
vt 0.252953 0.492249
vt 0.002953 0.492249
vt 0.257604 0.746900
vt 0.007604 0.746900
vt 0.007604 0.746900
vt 0.257604 0.746900
vt 0.254503 0.993799
vt 0.004503 0.993799
vt -0.000566 0.496900
vt -0.000566 0.746900
vt 0.005340 0.492249
vt 0.005340 0.742249
vt 0.007604 0.746900
vt 0.257604 0.746900
vt 0.252953 0.492249
vt 0.002953 0.492249
vt 0.252953 0.492249
vt 0.257604 0.746900
vt 0.252953 0.492249
vt 0.002953 0.492249
vt 0.002953 0.492249
vt 0.007604 0.746900
vt 0.500000 0.000000
vt 0.625000 0.000000
vt 0.625000 0.250000
vt 0.500000 0.250000
vt 0.500000 0.375000
vt 0.625000 0.375000
vt 0.625000 0.500000
vt 0.500000 0.500000
vt 0.500000 0.750000
vt 0.375000 0.750000
vt 0.375000 0.750000
vt 0.500000 0.750000
vt 0.500000 0.875000
vt 0.625000 0.875000
vt 0.625000 1.000000
vt 0.500000 1.000000
vt 0.500000 0.499023
vt 0.375000 0.500000
vt 0.500000 0.749023
vt 0.500977 0.501953
vt 0.625977 0.501953
vt 0.625977 0.751953
vt 0.500977 0.751953
vt 0.500000 0.500000
vt 0.625000 0.500000
vt 0.625000 0.500000
vt 0.500000 0.500000
vt 0.375000 0.500000
vt 0.625000 0.750000
vt 0.625000 0.750000
vt 0.375000 0.875000
vt 0.375000 1.000000
vt 0.375000 0.375000
vt 0.375000 0.000000
vt 0.375000 0.250000
vt 0.625000 0.750000
vt 0.500000 0.750000
vt 0.375000 0.250000
vt 0.375000 0.000000
vt 0.500000 0.499023
vt 0.500000 0.749023
vt 0.500000 0.749023
vt 0.500000 0.499023
vt 0.375000 1.000000
vt 0.375000 0.875000
vt 0.375000 0.375000
vt 0.375000 0.875000
vt 0.375000 1.000000
vt 0.375000 1.000000
vt 0.375000 0.875000
vt 0.375000 0.375000
vt 0.375000 0.250000
vt 0.375000 0.000000
vt 0.375000 0.000000
vt 0.375000 0.250000
vt 0.375000 0.250000
vt 0.375000 0.000000
vt 0.500000 0.749023
vt 0.500000 0.499023
vt 0.375000 0.375000
vt 0.375000 0.499023
vt 0.500000 0.499023
vt 0.500000 0.749023
vt 0.375000 0.749023
vt 0.375000 0.375000
vt 0.375000 1.000000
vt 0.375000 0.875000
vt 0.976661 0.091049
vt 0.725892 0.088588
vt 0.723431 0.307828
vt 0.980353 0.312750
vt 0.727122 0.495078
vt 0.976661 0.495078
vt 0.727122 0.745078
vt 0.976661 0.745078
vt 0.727122 0.995078
vt 0.979122 0.995078
vt 0.726661 0.495078
vt 0.726661 0.745078
vt 0.977122 0.495078
vt 0.977122 0.745078
vn -0.9972 -0.0571 0.0476
vn -0.0104 0.0113 -0.9999
vn 0.0064 -0.0007 1.0000
vn 0.0000 -0.0000 1.0000
vn 0.3793 -0.9252 -0.0151
vn -0.1057 0.9944 -0.0078
vn 0.0130 -0.0037 0.9999
vn 0.0680 0.9974 -0.0226
vn -0.3190 -0.9477 -0.0098
vn -0.0065 0.0006 -1.0000
vn 0.9794 0.1990 -0.0344
vn -0.0182 0.0069 -0.9998
vn -0.3861 0.9224 -0.0071
vn 0.8367 -0.5476 0.0096
vn 0.3962 -0.9181 0.0146
vn 0.0038 -0.0044 1.0000
vn -0.8484 0.5294 -0.0030
vn 0.0067 0.0031 -1.0000
vn -0.9659 -0.2588 0.0000
vn 0.0000 0.0000 -1.0000
vn 0.0467 -0.9989 0.0070
vn -0.2852 0.9585 0.0000
vn -0.0092 -0.9999 0.0060
vn -0.0051 1.0000 0.0000
vn 0.9950 -0.0994 0.0000
vn 0.0021 -1.0000 0.0000
vn -0.0021 1.0000 0.0000
vn -0.9897 -0.1430 0.0000
vn 0.6361 0.7716 0.0000
vn 0.6283 -0.7780 0.0000
vn -0.6361 -0.7716 0.0000
vn 0.8218 -0.5698 0.0000
vn 0.1040 -0.9946 0.0000
vn -0.1402 0.9901 0.0000
vn 0.0400 0.9992 0.0000
vn -0.8862 0.4633 0.0000
vn -0.9991 0.0415 0.0000
vn 0.9999 0.0121 0.0000
vn 0.0059 -1.0000 0.0000
vn -0.0030 1.0000 0.0000
usemtl Material.001
s off
f 1/1/1 2/2/1 4/3/1 3/4/1
f 3/4/2 4/3/2 8/5/2 7/6/2
f 6/7/3 5/8/3 10/9/3 9/10/3
f 5/8/4 6/7/4 2/11/4 1/12/4
f 3/13/5 7/6/5 5/8/5 1/14/5
f 8/5/6 4/15/6 2/16/6 6/7/6
f 9/10/7 10/9/7 11/17/7 12/18/7
f 8/5/8 6/7/8 9/10/8 14/19/8
f 5/8/9 7/6/9 13/20/9 10/9/9
f 7/6/10 8/5/10 14/19/10 13/20/10
f 16/21/11 12/18/11 18/22/11 20/23/11
f 13/20/12 14/19/12 16/21/12 15/24/12
f 14/19/13 9/10/13 12/18/13 16/21/13
f 10/9/14 13/20/14 15/24/14 11/17/14
f 19/25/15 20/23/15 18/22/15 17/26/15
f 12/18/16 11/17/16 17/26/16 18/22/16
f 11/17/17 15/24/17 19/25/17 17/26/17
f 15/24/18 16/21/18 20/23/18 19/25/18
usemtl Material.002
f 33/27/19 22/28/19 24/29/19 34/30/19
f 48/31/20 44/32/20 28/33/20 35/34/20
f 36/35/4 25/36/4 29/37/4 38/38/4
f 47/39/4 46/40/4 22/41/4 33/42/4
f 43/43/21 27/44/21 25/36/21 45/45/21
f 44/46/22 24/47/22 22/48/22 46/49/22
f 37/50/20 32/51/20 40/52/20 41/53/20
f 25/36/23 27/44/23 31/54/23 29/37/23
f 28/33/24 26/55/24 30/56/24 32/51/24
f 35/34/20 28/33/20 32/51/20 37/50/20
f 27/44/20 35/34/20 37/50/20 31/54/20
f 31/54/25 37/50/25 38/38/25 29/37/25
f 45/57/4 47/39/4 33/42/4 21/58/4
f 26/55/4 36/35/4 38/38/4 30/56/4
f 43/59/20 48/31/20 35/34/20 27/44/20
f 21/60/19 33/27/19 34/30/19 23/61/19
f 41/53/25 40/52/25 39/62/25 42/63/25
f 38/38/26 37/50/26 41/53/26 42/63/26
f 32/51/27 30/56/27 39/62/27 40/52/27
f 30/56/4 38/38/4 42/63/4 39/62/4
f 23/61/20 34/30/20 48/31/20 43/59/20
f 25/36/4 36/35/4 47/39/4 45/57/4
f 28/33/22 44/46/22 46/49/22 26/55/22
f 21/60/28 23/61/28 50/64/28 49/65/28
f 36/35/4 26/55/4 46/40/4 47/39/4
f 34/30/20 24/29/20 44/32/20 48/31/20
f 51/66/29 52/67/29 56/68/29 55/69/29
f 45/57/4 21/58/4 49/70/4 52/71/4
f 43/43/30 45/45/30 52/67/30 51/66/30
f 23/61/20 43/59/20 51/72/20 50/64/20
f 56/73/4 53/74/4 57/75/4 60/76/4
f 50/64/20 51/72/20 55/77/20 54/78/20
f 52/71/4 49/70/4 53/74/4 56/73/4
f 49/65/31 50/64/31 54/78/31 53/79/31
f 57/80/32 58/81/32 62/82/32 61/83/32
f 53/79/33 54/78/33 58/81/33 57/80/33
f 55/69/34 56/68/34 60/84/34 59/85/34
f 54/78/20 55/77/20 59/86/20 58/81/20
f 62/87/35 63/88/35 64/89/35 61/90/35
f 59/85/36 60/84/36 64/89/36 63/88/36
f 58/81/20 59/86/20 63/91/20 62/82/20
f 60/76/4 57/75/4 61/92/4 64/93/4
usemtl Material.003
f 65/94/37 66/95/37 68/96/37 67/97/37
f 67/97/20 68/96/20 72/98/20 71/99/20
f 71/99/38 72/98/38 70/100/38 69/101/38
f 69/101/4 70/100/4 66/102/4 65/103/4
f 67/104/39 71/99/39 69/101/39 65/105/39
f 72/98/40 68/106/40 66/107/40 70/100/40
